<svg width="27" height="12" viewBox="0 0 27 12" fill="none" xmlns="http://www.w3.org/2000/svg">
<path d="M1 5.64233C0.585786 5.64233 0.25 5.97812 0.25 6.39233C0.25 6.80655 0.585786 7.14233 1 7.14233L1 5.64233ZM26.5303 6.92266C26.8232 6.62977 26.8232 6.1549 26.5303 5.862L21.7574 1.08903C21.4645 0.79614 20.9896 0.79614 20.6967 1.08903C20.4038 1.38193 20.4038 1.8568 20.6967 2.14969L24.9393 6.39233L20.6967 10.635C20.4038 10.9279 20.4038 11.4027 20.6967 11.6956C20.9896 11.9885 21.4645 11.9885 21.7574 11.6956L26.5303 6.92266ZM1 7.14233L26 7.14233V5.64233L1 5.64233L1 7.14233Z" fill="#0C1013"/>
</svg>
