<svg width="148" height="148" viewBox="0 0 148 148" fill="none" xmlns="http://www.w3.org/2000/svg">
<circle cx="73.8158" cy="73.8158" r="72.8158" stroke="#C3882F" stroke-width="2"/>
<rect x="39.6992" y="39.6992" width="69.4737" height="43.4211" rx="1" fill="#0C1013"/>
<path d="M50.2441 70.7143L55.8268 62.0301L60.169 70.7143L66.372 58.9286L70.0938 65.1316L81.2592 46.5226L93.6652 70.7143" stroke="#FCFCFC" stroke-linecap="round"/>
<rect x="66.9927" y="84.361" width="14.8872" height="2.4812" fill="#0C1013"/>
<path d="M64.5113 88.0828H86.8421V90.564H62.6504L64.5113 88.0828Z" fill="#0C1013"/>
<rect x="49.624" y="93.0452" width="45.9023" height="9.92481" rx="1" fill="#C4C4C4"/>
<circle cx="103.59" cy="81.2594" r="16.7481" fill="#C3882F"/>
<mask id="path-8-inside-1_829_808" fill="white">
<path fill-rule="evenodd" clip-rule="evenodd" d="M102.916 78.0419C102.92 79.5237 104.003 80.6092 105.393 80.7563C105.81 80.8006 106.214 80.7364 106.579 80.5849C106.925 81.6265 107.794 82.4161 108.861 82.5291C109.743 82.6225 110.921 82.2474 111.745 81.5836C112.002 81.698 112.268 81.773 112.532 81.8009C114.727 81.4535 114.738 80.9535 114.764 79.8316C114.768 79.6306 114.773 79.4097 114.791 79.1662C114.82 78.7765 114.782 78.3979 114.689 78.0458C115.406 77.4629 115.72 76.1515 115.806 74.995C115.893 73.8153 115.326 72.7321 114.438 72.1801C113.843 71.1485 112.536 70.4509 111.391 70.3296C110.668 70.253 109.986 70.475 109.444 70.9036C108.841 70.4667 108.022 70.2275 107.225 70.1431C105.695 69.981 103.821 71.093 103.566 72.7296C102.519 73.0276 101.713 74.0194 101.621 75.2739C101.536 76.421 102.069 77.477 102.916 78.0419Z"/>
</mask>
<path fill-rule="evenodd" clip-rule="evenodd" d="M102.916 78.0419C102.92 79.5237 104.003 80.6092 105.393 80.7563C105.81 80.8006 106.214 80.7364 106.579 80.5849C106.925 81.6265 107.794 82.4161 108.861 82.5291C109.743 82.6225 110.921 82.2474 111.745 81.5836C112.002 81.698 112.268 81.773 112.532 81.8009C114.727 81.4535 114.738 80.9535 114.764 79.8316C114.768 79.6306 114.773 79.4097 114.791 79.1662C114.82 78.7765 114.782 78.3979 114.689 78.0458C115.406 77.4629 115.72 76.1515 115.806 74.995C115.893 73.8153 115.326 72.7321 114.438 72.1801C113.843 71.1485 112.536 70.4509 111.391 70.3296C110.668 70.253 109.986 70.475 109.444 70.9036C108.841 70.4667 108.022 70.2275 107.225 70.1431C105.695 69.981 103.821 71.093 103.566 72.7296C102.519 73.0276 101.713 74.0194 101.621 75.2739C101.536 76.421 102.069 77.477 102.916 78.0419Z" fill="white"/>
<path d="M102.916 78.0419L103.913 78.0702L103.911 77.5201L103.449 77.2116L102.916 78.0419ZM106.579 80.5849L107.524 80.2943L107.175 79.2414L106.175 79.656L106.579 80.5849ZM111.745 81.5836L112.124 80.6684L111.568 80.4214L111.106 80.7937L111.745 81.5836ZM112.532 81.8009L112.458 82.7982L112.588 82.812L112.717 82.7917L112.532 81.8009ZM114.764 79.8316L115.76 79.8853L115.76 79.8853L114.764 79.8316ZM114.689 78.0458L114.047 77.258L113.56 77.6538L113.726 78.2763L114.689 78.0458ZM114.438 72.1801L113.579 72.6625L113.71 72.8903L113.933 73.0288L114.438 72.1801ZM109.444 70.9036L108.878 71.711L109.495 72.1583L110.076 71.6989L109.444 70.9036ZM103.566 72.7296L103.865 73.6952L104.456 73.527L104.551 72.9146L103.566 72.7296ZM105.467 79.7591C104.559 79.663 103.915 78.9913 103.913 78.0702L101.918 78.0136C101.924 80.0561 103.447 81.5554 105.319 81.7536L105.467 79.7591ZM106.175 79.656C105.953 79.7479 105.714 79.7852 105.467 79.7591L105.319 81.7536C105.907 81.8159 106.474 81.7249 106.983 81.5137L106.175 79.656ZM108.935 81.5319C108.32 81.4667 107.759 81.0035 107.524 80.2943L105.634 80.8755C106.09 82.2495 107.267 83.3654 108.787 83.5264L108.935 81.5319ZM111.106 80.7937C110.447 81.3252 109.517 81.5935 108.935 81.5319L108.787 83.5264C109.969 83.6515 111.396 83.1696 112.383 82.3736L111.106 80.7937ZM112.606 80.8037C112.458 80.788 112.294 80.7442 112.124 80.6684L111.366 82.4989C111.71 82.6519 112.079 82.7581 112.458 82.7982L112.606 80.8037ZM113.767 79.7778C113.76 80.082 113.754 80.2356 113.732 80.3508C113.724 80.3975 113.716 80.4165 113.714 80.4203C113.713 80.422 113.713 80.4215 113.714 80.4198C113.716 80.418 113.716 80.4173 113.716 80.418C113.715 80.4188 113.661 80.4789 113.437 80.5606C113.211 80.6431 112.869 80.7276 112.347 80.8102L112.717 82.7917C113.799 82.6203 114.677 82.3794 115.207 81.7954C115.776 81.1687 115.75 80.3424 115.76 79.8853L113.767 79.7778ZM113.797 79.0609C113.776 79.3335 113.771 79.5786 113.767 79.7778L115.76 79.8853C115.765 79.6827 115.77 79.4859 115.785 79.2715L113.797 79.0609ZM113.726 78.2763C113.79 78.5181 113.817 78.7832 113.797 79.0609L115.785 79.2715C115.823 78.7698 115.774 78.2776 115.651 77.8153L113.726 78.2763ZM114.811 74.8897C114.772 75.4135 114.683 75.9466 114.536 76.3949C114.383 76.8606 114.201 77.133 114.047 77.258L115.33 78.8335C115.893 78.3757 116.227 77.7009 116.432 77.0761C116.643 76.4338 116.753 75.733 116.8 75.1003L114.811 74.8897ZM113.933 73.0288C114.475 73.3655 114.872 74.0683 114.811 74.8897L116.8 75.1003C116.914 73.5624 116.178 72.0986 114.943 71.3315L113.933 73.0288ZM111.317 71.3269C112.219 71.4223 113.188 71.9847 113.579 72.6625L115.297 71.6978C114.499 70.3124 112.853 69.4794 111.465 69.3323L111.317 71.3269ZM110.076 71.6989C110.436 71.4137 110.87 71.2795 111.317 71.3269L111.465 69.3323C110.466 69.2266 109.535 69.5363 108.812 70.1082L110.076 71.6989ZM107.151 71.1404C107.848 71.2141 108.473 71.4176 108.878 71.711L110.01 70.0961C109.209 69.5157 108.196 69.2408 107.299 69.1458L107.151 71.1404ZM104.551 72.9146C104.626 72.4334 104.955 71.9576 105.487 71.6023C106.021 71.2455 106.648 71.0871 107.151 71.1404L107.299 69.1458C106.271 69.037 105.197 69.3536 104.347 69.9214C103.496 70.4907 102.76 71.3892 102.581 72.5447L104.551 72.9146ZM102.615 75.3792C102.68 74.5034 103.235 73.8744 103.865 73.6952L103.267 71.7641C101.803 72.1807 100.747 73.5353 100.626 75.1686L102.615 75.3792ZM103.449 77.2116C102.929 76.8649 102.556 76.1772 102.615 75.3792L100.626 75.1686C100.515 76.6649 101.209 78.0892 102.382 78.8722L103.449 77.2116Z" fill="#0C1013" mask="url(#path-8-inside-1_829_808)"/>
<path d="M110.794 73.4052C110.794 73.4052 111.573 73.1995 112.043 73.3496C112.456 73.4812 112.959 73.9909 112.959 73.9909" stroke="#0C1013" stroke-linecap="round"/>
<path d="M109.797 79.4907C109.797 79.4907 110.494 79.408 110.833 79.1523C111.171 78.8966 111.441 78.2483 111.441 78.2483" stroke="#0C1013" stroke-linecap="round"/>
<path d="M107.194 74.3484C107.194 74.3484 107.426 75.0269 107.748 75.3224C108.07 75.6178 109.801 75.9919 109.801 75.9919" stroke="#0C1013" stroke-linecap="round"/>
<path d="M107.021 80.3745C107.021 80.3745 107.264 79.7149 107.194 79.2859C107.125 78.8568 106.682 78.2898 106.682 78.2898" stroke="#0C1013" stroke-linecap="round"/>
<path d="M103.962 73.2477C103.962 73.2477 104.088 73.9509 104.362 74.2919C104.637 74.6328 105.296 74.9042 105.296 74.9042" stroke="#0C1013" stroke-linecap="round"/>
<path d="M114.584 65.5045L115.776 59.5488" stroke="black" stroke-linecap="round"/>
<path d="M118.158 70.1396L123.268 65.0032" stroke="black" stroke-linecap="round"/>
<path d="M121.732 74.239L128.964 73.8127" stroke="black" stroke-linecap="round"/>
<path d="M101.14 137.646C101.333 137.959 101.786 137.964 101.986 137.655L125.996 100.52C126.212 100.187 125.973 99.7482 125.577 99.7482H78.7073C78.3161 99.7482 78.0764 100.177 78.2815 100.51L101.14 137.646Z" fill="#C3882F" stroke="#C3882F"/>
<path d="M76.297 103.59L57.6879 106.692L54.5864 97.3872" stroke="#C3882F" stroke-width="1.5" stroke-linecap="round"/>
<path d="M93.0451 130.883L75.6767 122.82L62.6504 140.808" stroke="#C3882F" stroke-width="1.5" stroke-linecap="round"/>
<path d="M86.2216 121.579L73.1953 115.376L60.1689 132.744" stroke="#C3882F" stroke-width="1.5" stroke-linecap="round"/>
</svg>
