<svg width="148" height="148" viewBox="0 0 148 148" fill="none" xmlns="http://www.w3.org/2000/svg">
<path d="M66.9922 51.485L72.5749 43.421L75.0561 39.6992L81.8794 38.4586L84.9809 35.9774L90.5636 38.4586V42.1804L96.1463 43.421L99.8681 42.1804L107.312 43.421L110.413 39.6992L108.552 35.9774L104.21 38.4586L102.349 34.1165L99.8681 35.9774L96.1463 28.5338H93.0448L96.1463 34.1165L93.0448 38.4586L90.5636 35.9774L91.8042 32.2556L88.0824 28.5338L81.8794 34.1165L75.0561 37.218L72.5749 34.1165L73.8155 32.2556V28.5338H78.7779L80.0185 26.0526L76.2967 24.1917L78.7779 22.3308L81.8794 21.0902L84.9809 18.609L86.8418 12.406H89.323L90.5636 16.1278H96.1463L99.8681 11.1654H104.21L106.071 8.6842C128.561 21.2958 135.87 31.8529 143.909 53.9662L138.947 55.2068L137.706 50.2444L130.883 45.2819L120.338 43.421L122.199 46.5226V50.2444L127.782 46.5226L129.643 50.2444L130.883 51.485L125.3 57.0677L119.097 58.9286L110.413 46.5226V51.485L114.135 55.2068L117.857 62.0301H124.06L122.199 68.2331L117.857 71.3346L114.135 77.5376L115.996 87.4624L110.413 93.6654L111.654 96.1466L107.312 99.2481L104.21 106.692H99.8681H96.1463V102.35L93.0448 99.2481V93.6654L90.5636 86.2218L93.0448 81.8797L88.0824 73.8158V69.4737H86.8418L84.9809 66.3722L81.8794 68.2331H78.7779H73.8155L66.9922 60.1692V55.2068V51.485Z" fill="#C3882F" stroke="#C3882F"/>
<circle cx="73.8158" cy="73.8158" r="72.8158" stroke="#C3882F" stroke-width="2"/>
<path fill-rule="evenodd" clip-rule="evenodd" d="M56.3769 96.0325V92.064H66.4428V96.0325H56.3769ZM54.8769 91.564C54.8769 91.0117 55.3246 90.564 55.8769 90.564H66.9428C67.4951 90.564 67.9428 91.0117 67.9428 91.564V96.5325C67.9428 96.5762 67.94 96.6192 67.9346 96.6614H80.8798C81.4321 96.6614 81.8798 97.1091 81.8798 97.6614V121.793C81.8798 122.346 81.4321 122.793 80.8798 122.793H41.9399C41.3877 122.793 40.9399 122.346 40.9399 121.793V97.6614C40.9399 97.1091 41.3877 96.6614 41.9399 96.6614H54.8851C54.8797 96.6192 54.8769 96.5762 54.8769 96.5325V91.564Z" fill="#C3882F"/>
<path fill-rule="evenodd" clip-rule="evenodd" d="M136.053 92.218C136.053 93.2285 135.774 94.1739 135.289 94.9814L130.677 102.97L126.067 94.9851C125.58 94.1768 125.301 93.23 125.301 92.218C125.301 89.2489 127.708 86.842 130.677 86.842C133.646 86.842 136.053 89.2489 136.053 92.218ZM130.677 95.29C132.373 95.29 133.749 93.9147 133.749 92.2181C133.749 90.5215 132.373 89.1461 130.677 89.1461C128.98 89.1461 127.605 90.5215 127.605 92.2181C127.605 93.9147 128.98 95.29 130.677 95.29Z" fill="#0C1013"/>
<path fill-rule="evenodd" clip-rule="evenodd" d="M44.2485 21.5037C44.2485 22.5158 43.9688 23.4625 43.4825 24.2709L38.8726 32.2556L34.2639 24.2733C33.7768 23.4644 33.4966 22.5168 33.4966 21.5037C33.4966 18.5347 35.9035 16.1278 38.8725 16.1278C41.8416 16.1278 44.2485 18.5347 44.2485 21.5037ZM38.8725 24.5758C40.5691 24.5758 41.9445 23.2004 41.9445 21.5038C41.9445 19.8072 40.5691 18.4318 38.8725 18.4318C37.1759 18.4318 35.8005 19.8072 35.8005 21.5038C35.8005 23.2004 37.1759 24.5758 38.8725 24.5758Z" fill="#0C1013"/>
<path fill-rule="evenodd" clip-rule="evenodd" d="M116.203 19.0225C116.203 20.0341 115.924 20.9803 115.438 21.7884L110.827 29.7744L106.22 21.7945C105.732 20.9851 105.451 20.0366 105.451 19.0225C105.451 16.0535 107.858 13.6466 110.827 13.6466C113.796 13.6466 116.203 16.0535 116.203 19.0225ZM110.827 22.0946C112.524 22.0946 113.899 20.7192 113.899 19.0226C113.899 17.326 112.524 15.9507 110.827 15.9507C109.13 15.9507 107.755 17.326 107.755 19.0226C107.755 20.7192 109.13 22.0946 110.827 22.0946Z" fill="#0C1013"/>
<line x1="47.8926" y1="96.767" x2="47.8926" y2="122.82" stroke="#0C1013" stroke-width="1.5"/>
<line x1="76.4268" y1="96.767" x2="76.4268" y2="122.82" stroke="#0C1013" stroke-width="1.5"/>
</svg>
