<svg width="148" height="148" viewBox="0 0 148 148" fill="none" xmlns="http://www.w3.org/2000/svg">
<circle cx="73.8158" cy="73.8158" r="72.8158" stroke="#C3882F" stroke-width="2"/>
<path d="M72.1297 81.1492C72.3154 81.5127 72.8347 81.5127 73.0203 81.1492L83.7422 60.1561C83.9121 59.8234 83.6705 59.4286 83.2969 59.4286H61.8531C61.4796 59.4286 61.2379 59.8234 61.4078 60.1561L72.1297 81.1492Z" fill="#0C1013" stroke="#0C1013"/>
<path d="M65.0114 49.1671C65.0114 53.4431 68.4154 56.8945 72.5961 56.8945C76.7767 56.8945 80.1807 53.4431 80.1807 49.1671C80.1807 44.8912 76.7767 41.4398 72.5961 41.4398C68.4154 41.4398 65.0114 44.8912 65.0114 49.1671Z" fill="#C3882F" stroke="#C3882F"/>
<line x1="70.2236" y1="82.6298" x2="70.2236" y2="97.2576" stroke="#0C1013" stroke-width="1.5" stroke-linecap="round"/>
<line x1="0.75" y1="-0.75" x2="15.7046" y2="-0.75" transform="matrix(0 1 1 0 75.6772 82.4106)" stroke="#0C1013" stroke-width="1.5" stroke-linecap="round"/>
<path d="M84.3608 62.03L86.842 73.8157" stroke="#0C1013" stroke-width="1.5" stroke-linecap="round"/>
<line x1="101.238" y1="91.314" x2="101.238" y2="105.942" stroke="#C3882F" stroke-width="1.5" stroke-linecap="round"/>
<line x1="0.75" y1="-0.75" x2="15.7046" y2="-0.75" transform="matrix(0 1 1 0 106.692 91.095)" stroke="#C3882F" stroke-width="1.5" stroke-linecap="round"/>
<path d="M105.09 69.5638C104.904 69.2003 104.385 69.2003 104.199 69.5638L103.754 69.3364L104.199 69.5638L94.7127 88.143C94.5428 88.4757 94.7845 88.8704 95.158 88.8704H114.131C114.505 88.8704 114.746 88.4757 114.576 88.143L105.09 69.5638Z" fill="#C3882F" stroke="#C3882F"/>
<path d="M110.414 75.0565H119.098L121.579 68.2332" stroke="#C3882F" stroke-width="1.5" stroke-linecap="round"/>
<path d="M97.0598 60.3327C97.0598 64.6086 100.464 68.06 104.644 68.06C108.825 68.06 112.229 64.6086 112.229 60.3327C112.229 56.0567 108.825 52.6053 104.644 52.6053C100.464 52.6053 97.0598 56.0567 97.0598 60.3327Z" fill="#C3882F" stroke="#C3882F"/>
<path d="M99.1676 74.9549L91.8452 88.035" stroke="#C3882F" stroke-width="1.5" stroke-linecap="round"/>
<path d="M49.7992 83.6304C49.9848 83.9939 50.5041 83.9939 50.6897 83.6304L61.4116 62.6373C61.5816 62.3046 61.3399 61.9098 60.9664 61.9098H39.5226C39.149 61.9098 38.9074 62.3046 39.0773 62.6373L49.7992 83.6304Z" fill="#0C1013" stroke="#0C1013"/>
<path d="M42.6804 51.6483C42.6804 55.9243 46.0843 59.3757 50.265 59.3757C54.4457 59.3757 57.8496 55.9243 57.8496 51.6483C57.8496 47.3724 54.4457 43.921 50.265 43.921C46.0843 43.921 42.6804 47.3724 42.6804 51.6483Z" fill="#C3882F" stroke="#C3882F"/>
<line x1="47.8926" y1="85.111" x2="47.8926" y2="99.7388" stroke="#0C1013" stroke-width="1.5" stroke-linecap="round"/>
<line x1="0.75" y1="-0.75" x2="15.7046" y2="-0.75" transform="matrix(0 1 1 0 53.3462 84.8918)" stroke="#0C1013" stroke-width="1.5" stroke-linecap="round"/>
<path d="M62.0298 64.5112L64.511 76.2969" stroke="#0C1013" stroke-width="1.5" stroke-linecap="round"/>
<path d="M42.1804 63.2706H29.7744L32.7519 52.1052" stroke="black" stroke-width="1.5" stroke-linecap="round"/>
<path d="M46.5225 54.5864C50.2443 58.3082 51.676 57.1839 54.5864 54.5864" stroke="black" stroke-width="1.5" stroke-linecap="round"/>
<path d="M68.2329 52.1052C71.9547 55.827 73.3865 54.7027 76.2968 52.1052" stroke="black" stroke-width="1.5" stroke-linecap="round"/>
<path d="M98.0073 62.6504C99.8682 65.7519 101.972 65.9693 104.21 63.2707" stroke="black" stroke-width="1.5" stroke-linecap="round"/>
</svg>
