<svg width="55" height="55" viewBox="0 0 55 55" fill="none" xmlns="http://www.w3.org/2000/svg">
<path d="M31.0233 27.1048C31.0233 35.7461 24.0784 42.7511 15.5119 42.7511C6.94542 42.7511 0 35.7445 0 27.1048C0 18.4652 6.94489 11.458 15.5119 11.458C24.0789 11.458 31.0233 18.4636 31.0233 27.1048Z" fill="#C3882F"/>
<path d="M48.0398 27.1053C48.0398 35.2391 44.5673 41.8355 40.2838 41.8355C36.0003 41.8355 32.5278 35.2391 32.5278 27.1053C32.5278 18.9714 35.9998 12.375 40.2833 12.375C44.5668 12.375 48.0392 18.9693 48.0392 27.1053" fill="#C3882F"/>
<path d="M55 27.1052C55 34.3911 53.7789 40.3012 52.2722 40.3012C50.7655 40.3012 49.5449 34.3927 49.5449 27.1052C49.5449 19.8177 50.766 13.9092 52.2722 13.9092C53.7784 13.9092 55 19.8171 55 27.1052Z" fill="#C3882F"/>
</svg>
