<svg width="20" height="20" viewBox="0 0 20 20" fill="none" xmlns="http://www.w3.org/2000/svg">
<path d="M3.19416 3.33333H6.93578L8.14179 6.34836L6.20439 7.63996C5.97256 7.79451 5.83331 8.0547 5.83331 8.33333C5.83542 8.41136 5.83331 8.33416 5.83331 8.33416L5.83331 8.33504L5.83331 8.3369L5.83334 8.34111L5.83346 8.35139C5.83359 8.35907 5.8338 8.3684 5.83415 8.37932C5.83485 8.40117 5.83613 8.42941 5.83841 8.46363C5.84297 8.53205 5.85157 8.62453 5.86772 8.73764C5.90002 8.96372 5.96271 9.27342 6.08441 9.63852C6.32877 10.3716 6.80892 11.3208 7.74405 12.2559C8.67919 13.1911 9.62836 13.6712 10.3615 13.9156C10.7265 14.0373 11.0363 14.0999 11.2623 14.1322C11.3754 14.1484 11.4679 14.157 11.5363 14.1616C11.5706 14.1638 11.5988 14.1651 11.6206 14.1658C11.6316 14.1662 11.6409 14.1664 11.6486 14.1665L11.6589 14.1666L11.6631 14.1667L11.6649 14.1667L11.6658 14.1667C11.6658 14.1667 11.7588 14.1616 11.6666 14.1667C11.9823 14.1667 12.2708 13.9883 12.412 13.706L12.9701 12.5898L16.6666 13.2059V16.8058C14.9074 17.0602 10.1561 17.311 6.42256 13.5774C2.68898 9.84383 2.93974 5.09258 3.19416 3.33333ZM7.56135 8.7384L9.06629 7.73511C9.72207 7.29792 9.98196 6.46114 9.68925 5.72937L8.48324 2.71435C8.23014 2.08158 7.61729 1.66666 6.93578 1.66666H3.15062C2.39353 1.66666 1.68088 2.19263 1.55659 3.01408C1.27384 4.88292 0.888963 10.4008 5.24405 14.7559C9.59914 19.111 15.1171 18.7261 16.9859 18.4434C17.8073 18.3191 18.3333 17.6064 18.3333 16.8493V13.2059C18.3333 12.3912 17.7443 11.6959 16.9406 11.5619L13.2441 10.9459C12.5224 10.8256 11.8066 11.1901 11.4794 11.8445L11.1906 12.422C11.0999 12.3997 10.9986 12.3711 10.8885 12.3344C10.3716 12.1621 9.65409 11.8089 8.92256 11.0774C8.19103 10.3459 7.83785 9.62839 7.66554 9.11147C7.61898 8.9718 7.58547 8.8462 7.56135 8.7384Z" fill="#FCFCFC"/>
</svg>
