<svg width="72" height="53" viewBox="0 0 72 53" fill="none" xmlns="http://www.w3.org/2000/svg">
<mask id="path-1-inside-1_903_2723" fill="white">
<rect width="71.6585" height="44.7866" rx="1"/>
</mask>
<rect width="71.6585" height="44.7866" rx="1" stroke="black" stroke-width="4" mask="url(#path-1-inside-1_903_2723)"/>
<rect x="28.1519" y="46.0659" width="15.3554" height="2.55923" fill="#0C1013"/>
<path d="M25.5925 49.9053H47.1298L48.6256 52.4645H23.6731L25.5925 49.9053Z" fill="#0C1013"/>
<path d="M21.07 29.18C20.3 29.18 19.605 29.03 18.985 28.73C18.365 28.42 17.87 27.955 17.5 27.335C17.14 26.715 16.96 25.93 16.96 24.98V18.5H18.88V24.995C18.88 25.815 19.075 26.425 19.465 26.825C19.865 27.225 20.415 27.425 21.115 27.425C21.805 27.425 22.35 27.225 22.75 26.825C23.15 26.425 23.35 25.815 23.35 24.995V18.5H25.27V24.98C25.27 25.93 25.08 26.715 24.7 27.335C24.32 27.955 23.81 28.42 23.17 28.73C22.54 29.03 21.84 29.18 21.07 29.18ZM26.72 29L30.005 23.69L26.675 18.5H28.88L31.235 22.16L33.395 18.5H35.555L32.27 23.78L35.63 29H33.425L31.04 25.295L28.88 29H26.72ZM36.4427 30.665L40.1927 17.345H42.0677L38.3027 30.665H36.4427ZM47.4811 29.18C46.7111 29.18 46.0161 29.03 45.3961 28.73C44.7761 28.42 44.2811 27.955 43.9111 27.335C43.5511 26.715 43.3711 25.93 43.3711 24.98V18.5H45.2911V24.995C45.2911 25.815 45.4861 26.425 45.8761 26.825C46.2761 27.225 46.8261 27.425 47.5261 27.425C48.2161 27.425 48.7611 27.225 49.1611 26.825C49.5611 26.425 49.7611 25.815 49.7611 24.995V18.5H51.6811V24.98C51.6811 25.93 51.4911 26.715 51.1111 27.335C50.7311 27.955 50.2211 28.42 49.5811 28.73C48.9511 29.03 48.2511 29.18 47.4811 29.18ZM53.6411 29V18.5H55.5611V29H53.6411Z" fill="#A6A9AC"/>
</svg>
