<svg width="36" height="27" viewBox="0 0 36 27" fill="none" xmlns="http://www.w3.org/2000/svg">
<path d="M4.88571 0.86936H31.1143C33.0349 0.86936 34.6 2.44654 34.6 4.40229V22.4282C34.6 24.384 33.0349 25.9611 31.1143 25.9611H4.88571C2.96515 25.9611 1.4 24.384 1.4 22.4282V4.40229C1.4 2.44654 2.96515 0.86936 4.88571 0.86936Z" fill="#0C1013" stroke="#0C1013" stroke-width="0.8"/>
<path d="M31.1145 0.633057H4.88592C2.82932 0.633057 1.16211 2.32052 1.16211 4.40211V22.428C1.16211 24.5096 2.82932 26.1971 4.88592 26.1971H31.1145C33.1711 26.1971 34.8383 24.5096 34.8383 22.428V4.40211C34.8383 2.32052 33.1711 0.633057 31.1145 0.633057Z" fill="#0C1013" stroke="#0C1013" stroke-width="0.8"/>
<path d="M1.85938 2.29112C1.85938 2.29112 14.2474 14.1256 18.4061 14.2728C22.5648 14.4199 34.0047 2.05481 34.0047 2.05481" stroke="#FCFCFC" stroke-width="0.8"/>
</svg>
