<svg width="22" height="22" viewBox="0 0 22 22" fill="none" xmlns="http://www.w3.org/2000/svg">
<path d="M17.841 5.11109C17.211 4.4238 16.0733 4.38145 15.3149 5.13985L7.88995 12.5649C7.69793 12.7569 7.69793 13.0015 7.88995 13.1935C8.08197 13.3855 8.32656 13.3855 8.51858 13.1935L14.6603 7.05183C15.0182 6.69385 15.5986 6.69385 15.9566 7.05183C16.3146 7.40981 16.3146 7.99021 15.9566 8.34819L9.81495 14.4899C8.90697 15.3978 7.50157 15.3978 6.59358 14.4899C5.6856 13.5819 5.6856 12.1765 6.59358 11.2685L14.0186 3.84349C15.4555 2.40659 17.7906 2.35983 19.1789 3.85752C20.6018 5.29524 20.6437 7.61894 19.1519 9.00289L10.4566 17.6982C8.44863 19.7062 5.30156 19.7062 3.29358 17.6982C1.2856 15.6902 1.2856 12.5431 3.29358 10.5352L10.7186 3.11016C11.0766 2.75218 11.657 2.75218 12.0149 3.11016C12.3729 3.46814 12.3729 4.04854 12.0149 4.40652L4.58995 11.8315C3.29793 13.1235 3.29793 15.1098 4.58995 16.4018C5.88197 17.6938 7.86823 17.6938 9.16025 16.4018L17.8686 7.69349C17.878 7.6841 17.8876 7.67492 17.8974 7.66595C18.5846 7.03594 18.627 5.89825 17.8686 5.13985C17.8592 5.13047 17.85 5.12087 17.841 5.11109Z" fill="#FCFCFC"/>
</svg>
