<svg width="39" height="39" viewBox="0 0 39 39" fill="none" xmlns="http://www.w3.org/2000/svg">
<path fill-rule="evenodd" clip-rule="evenodd" d="M19.5004 0.8125C14.8712 0.814902 10.3937 2.45449 6.86865 5.4381C3.3436 8.4217 1.00083 12.5548 0.259245 17.0982C-0.482338 21.6417 0.425616 26.2994 2.82077 30.2383C5.21593 34.1772 8.9421 37.1406 13.333 38.5986C14.3017 38.7784 14.6666 38.178 14.6666 37.6675C14.6666 37.157 14.6472 35.6769 14.6407 34.0587C9.216 35.2306 8.06971 31.7695 8.06971 31.7695C7.18496 29.5221 5.90627 28.9313 5.90627 28.9313C4.13677 27.7305 6.03867 27.753 6.03867 27.753C7.99868 27.8911 9.02874 29.7533 9.02874 29.7533C10.7659 32.7167 13.5913 31.8594 14.7021 31.3586C14.8765 30.1032 15.3834 29.2492 15.942 28.7644C11.6087 28.2764 7.0558 26.6132 7.0558 19.1838C7.02894 17.257 7.74802 15.3937 9.06425 13.9794C8.86405 13.4913 8.19564 11.52 9.25475 8.84233C9.25475 8.84233 10.8919 8.3222 14.6182 10.8297C17.8143 9.96064 21.1865 9.96064 24.3827 10.8297C28.1057 8.3222 29.7396 8.84233 29.7396 8.84233C30.8019 11.5136 30.1335 13.4849 29.9333 13.9794C31.2537 15.3939 31.9743 17.2605 31.945 19.1902C31.945 26.6357 27.3824 28.2764 23.0426 28.7547C23.7401 29.3583 24.3633 30.5366 24.3633 32.3475C24.3633 34.9417 24.3407 37.0286 24.3407 37.6675C24.3407 38.1844 24.6927 38.788 25.6807 38.5986C30.0721 37.1404 33.7987 34.1765 36.1938 30.2369C38.5889 26.2973 39.4964 21.639 38.754 17.0951C38.0115 12.5512 35.6676 8.41808 32.1414 5.43498C28.6152 2.45189 24.1367 0.813379 19.5069 0.8125H19.5004Z" fill="#C3882F"/>
</svg>
