<svg width="22" height="22" viewBox="0 0 22 22" fill="none" xmlns="http://www.w3.org/2000/svg">
<path d="M11.0001 1.83334C6.96675 1.83334 3.66675 5.13334 3.66675 9.16667C3.66675 14.1167 10.0834 19.7083 10.3584 19.9833C10.5417 20.075 10.8167 20.1667 11.0001 20.1667C11.1834 20.1667 11.4584 20.075 11.6417 19.9833C11.9167 19.7083 18.3334 14.1167 18.3334 9.16667C18.3334 5.13334 15.0334 1.83334 11.0001 1.83334ZM11.0001 18.0583C9.07508 16.225 5.50008 12.2833 5.50008 9.16667C5.50008 6.14167 7.97508 3.66667 11.0001 3.66667C14.0251 3.66667 16.5001 6.14167 16.5001 9.16667C16.5001 12.1917 12.9251 16.225 11.0001 18.0583ZM11.0001 5.5C8.98341 5.5 7.33341 7.15 7.33341 9.16667C7.33341 11.1833 8.98341 12.8333 11.0001 12.8333C13.0167 12.8333 14.6667 11.1833 14.6667 9.16667C14.6667 7.15 13.0167 5.5 11.0001 5.5ZM11.0001 11C9.99175 11 9.16675 10.175 9.16675 9.16667C9.16675 8.15834 9.99175 7.33334 11.0001 7.33334C12.0084 7.33334 12.8334 8.15834 12.8334 9.16667C12.8334 10.175 12.0084 11 11.0001 11Z" fill="#FCFCFC"/>
</svg>
