<svg width="325" height="62" viewBox="0 0 325 62" fill="none" xmlns="http://www.w3.org/2000/svg">
<path d="M11.6731 15.7465C6.14617 13.6315 3.35352 13.0122 3.35352 8.44351C3.35352 5.07829 4.89591 3.29052 9.85025 3.29052C14.8046 3.29052 16.6741 4.9731 16.6741 9.21467V11.0375H19.8524V9.64704C19.8524 3.67612 17.1065 0.299225 10.1891 0.299225H9.8035C2.87443 0.299225 0.0934624 3.18536 0.0934624 8.61877C0.0934624 14.0522 2.73422 16.0269 8.78693 18.2821C14.6293 20.4437 16.7209 21.3084 16.7209 26.0291C16.7209 29.7799 15.2837 31.3106 10.1891 31.3106C5.09456 31.3106 3.17826 29.8733 3.17826 25.2111V23.4233H0V24.732C0 31.4157 2.79265 34.3486 9.8152 34.3486H10.2943C17.3636 34.3486 20.0043 31.6962 20.0043 25.7837C20.0043 19.6726 17.2701 17.8965 11.6848 15.7815" fill="#FCFCFC"/>
<path d="M34.7388 0.264221H34.3532C27.9032 0.264221 24.3511 3.87478 24.3511 11.5166V23.0144C24.3511 30.6095 27.7163 34.3136 34.3065 34.3136H34.7856C41.3641 34.3136 44.741 30.6095 44.741 23.0144V11.5166C44.741 3.87478 41.1771 0.264221 34.7388 0.264221ZM41.3641 23.2014C41.3641 28.9269 39.1557 31.2756 34.5402 31.2756C29.9247 31.2756 27.7163 28.9386 27.7163 23.2014V11.3297C27.7163 5.48728 29.9247 3.29057 34.5402 3.29057C39.1557 3.29057 41.3641 5.51065 41.3641 11.3297V23.2014Z" fill="#FCFCFC"/>
<path d="M48.7957 33.6359H52.1609V18.4924H66.872V15.4076H52.1609V4.01498H68.8V0.941879H48.7957V33.6359Z" fill="#FCFCFC"/>
<path d="M71.9431 4.01498H81.5597V33.6359H84.9249V4.01498H94.5414V0.941879H71.9431V4.01498Z" fill="#FCFCFC"/>
<path d="M124.852 6.03646C128.123 6.03646 129.806 7.62559 129.806 11.8087H136.057C136.057 4.30712 132.108 0.264221 124.852 0.264221H124.466C117.163 0.264221 113.26 4.30714 113.26 12.0892V22.6055C113.26 30.1538 116.918 34.2902 124.326 34.2902H124.992C131.535 34.2902 136.057 31.4976 136.057 23.2715V16.2606H125.039V22.512H129.9V24.253C129.9 27.3729 128.264 28.5296 124.805 28.5296C121.346 28.5296 119.897 26.8003 119.897 23.0028V11.4115C119.897 7.61391 121.533 6.0248 124.852 6.0248" fill="#FCFCFC"/>
<path d="M152.007 0.264221H151.621C144.318 0.264221 140.416 4.30714 140.416 12.0892V22.6055C140.416 30.1538 144.073 34.2902 151.481 34.2902H152.159C159.555 34.2902 163.213 30.1538 163.213 22.6055V12.0892C163.213 4.30714 159.322 0.264221 152.007 0.264221ZM156.576 23.1547C156.576 26.9522 154.987 28.5413 151.82 28.5413C148.654 28.5413 147.053 26.9522 147.053 23.1547V11.5634C147.053 7.76582 148.642 6.03646 151.82 6.03646C154.998 6.03646 156.576 7.76582 156.576 11.5634V23.1547Z" fill="#FCFCFC"/>
<path d="M191.291 33.6359L184.888 20.7826C189.176 19.3454 190.906 16.319 190.906 11.318C190.906 4.05004 187.202 0.930191 177.492 0.930191H168.307V33.6475H174.746V21.7057H178.251L184.093 33.6359H191.291ZM178.356 15.6997H174.746V7.04134H178.356C182.726 7.04134 184.269 8.10464 184.269 11.3764C184.269 14.6481 182.726 15.6997 178.356 15.6997Z" fill="#FCFCFC"/>
<path d="M194.364 6.9946H201.632V27.5715H194.364V33.6359H215.432V27.5715H208.164V6.9946H215.432V0.941879H194.364V6.9946Z" fill="#FCFCFC"/>
<path d="M227.479 0.941879H220.842V33.6359H242.576V27.3845H227.479V0.941879Z" fill="#FCFCFC"/>
<path d="M253.968 0.941879H247.331V33.6359H269.065V27.3845H253.968V0.941879Z" fill="#FCFCFC"/>
<path d="M281.615 0.649765L273.587 33.6359H279.932L281.568 26.8119H291.71L293.299 33.6359H300.123L292.096 0.649765H281.615ZM282.912 21.1332L286.475 4.87964H286.955L290.46 21.1332H282.912Z" fill="#FCFCFC"/>
<path d="M315.559 14.2041C310.558 12.4748 308.548 11.8672 308.548 9.1563C308.548 6.81935 309.506 5.83783 313.397 5.83783C317.054 5.83783 318.597 6.90115 318.597 10.5117V11.0843H324.848V10.7454C324.848 3.58265 321.238 0.229126 313.596 0.229126H313.21C305.51 0.229126 302.098 3.45414 302.098 9.41337C302.098 15.3726 305.603 17.3006 311.446 19.5557C316.973 21.6239 318.457 22.103 318.457 25.0359C318.457 27.7351 317.498 28.6932 313.561 28.6932C309.857 28.6932 308.314 27.6883 308.314 23.6922V23.1196H302.016V23.4701C302.016 30.8666 305.288 34.2902 313.175 34.2902H313.888C321.822 34.2902 325 31.1587 325 24.6153C325 18.3639 321.869 16.4359 315.524 14.1807" fill="#FCFCFC"/>
<path d="M80.0057 53.2429C77.6687 52.3549 76.5002 52.0744 76.5002 50.1698C76.5002 48.7559 77.1546 48.0081 79.2345 48.0081C81.3143 48.0081 82.0972 48.7209 82.0972 50.497V51.2682H83.4293V50.6839C83.4293 48.1717 82.2608 46.7462 79.3747 46.7462H79.2111C76.3016 46.7462 75.1331 47.9146 75.1331 50.2516C75.1331 52.5886 76.2432 53.3597 78.7904 54.3062C81.3377 55.2527 82.1206 55.5799 82.1206 57.5546C82.1206 59.132 81.513 59.7863 79.3747 59.7863C77.2364 59.7863 76.4184 59.1787 76.4184 57.2157V56.4679H75.063V57.0171C75.063 59.8214 76.2315 61.06 79.1877 61.06H79.3864C82.3543 61.06 83.4643 59.8915 83.4643 57.4611C83.4643 55.0306 82.2959 54.1426 79.9589 53.2546" fill="#C3882F"/>
<path d="M92.4731 46.7462H92.3096C89.6104 46.7462 88.1147 48.2535 88.1147 51.4201V56.2459C88.1147 59.4358 89.5286 61.0016 92.2979 61.0016H92.4965C95.2658 61.0016 96.6797 59.4358 96.6797 56.2459V51.5135C96.6797 48.3002 95.184 46.8396 92.4731 46.8396V46.7462ZM95.2658 56.4679C95.2658 58.8749 94.331 59.8681 92.3913 59.8681C90.4517 59.8681 89.5286 58.8749 89.5286 56.4679V51.4785C89.5286 49.0364 90.4517 48.1016 92.3913 48.1016C94.331 48.1016 95.2658 49.0364 95.2658 51.4785V56.4679Z" fill="#C3882F"/>
<path d="M101.821 60.7562H103.235V54.3997H109.416V53.1027H103.235V48.3119H110.222V47.0266H101.821V60.7562Z" fill="#C3882F"/>
<path d="M113.821 48.3119H117.864V60.7562H119.278V48.3119H123.321V47.0266H113.821V48.3119Z" fill="#C3882F"/>
<path d="M134.351 58.9567H134.235L132.517 49.2467H130.893L129.175 58.9567H129.035L127.341 47.0266H125.927L128.03 60.7562H129.97L131.629 51.2798H131.699L133.382 60.7562H135.298L137.401 47.0266H136.069L134.351 58.9567Z" fill="#C3882F"/>
<path d="M143.746 46.8396L139.586 60.7328H140.977L142.145 56.9353H147.333L148.502 60.7328H149.974L145.814 46.8396H143.746ZM142.519 55.65L144.692 48.0549H144.798L146.936 55.65H142.519Z" fill="#C3882F"/>
<path d="M162.372 50.941C162.372 48.2535 160.923 47.0266 157.347 47.0266H153.947V60.7562H155.361V54.9138H158.177L161.004 60.7562H162.582L159.602 54.7385C160.452 54.5609 161.206 54.0742 161.718 53.3726C162.229 52.671 162.462 51.8045 162.372 50.941ZM157.405 53.6869H155.361V48.3119H157.382C159.906 48.3119 160.888 49.0013 160.888 50.9877C160.888 52.9741 159.918 53.6869 157.382 53.6869" fill="#C3882F"/>
<path d="M167.092 60.7562H175.341V59.4709H168.494V54.3997H174.734V53.1027H168.494V48.3119H175.341V47.0266H167.092V60.7562Z" fill="#C3882F"/>
<path d="M199.868 53.2078H194.388V47.0266H192.962V60.7562H194.388V54.4931H199.868V60.7562H201.282V47.0266H199.868V53.2078Z" fill="#C3882F"/>
<path d="M210.291 46.7462H210.127C207.428 46.7462 205.932 48.2535 205.932 51.4201V56.2459C205.932 59.4358 207.346 61.0016 210.116 61.0016H210.314C213.083 61.0016 214.497 59.4358 214.497 56.2459V51.5135C214.497 48.3002 213.002 46.8396 210.291 46.8396V46.7462ZM213.083 56.4679C213.083 58.8749 212.149 59.8681 210.209 59.8681C208.269 59.8681 207.346 58.8749 207.346 56.4679V51.4785C207.346 49.0364 208.269 48.1016 210.209 48.1016C212.149 48.1016 213.083 49.0364 213.083 51.4785V56.4679Z" fill="#C3882F"/>
<path d="M226.229 56.3744C226.229 58.8165 225.329 59.7747 223.366 59.7747C221.403 59.7747 220.48 58.8048 220.48 56.3744V47.0266H219.066V56.2926C219.066 59.5059 220.456 61.0483 223.249 61.0483H223.448C226.17 61.0483 227.549 59.5293 227.549 56.2926V47.0266H226.229V56.3744Z" fill="#C3882F"/>
<path d="M237.107 53.2429C234.77 52.3549 233.602 52.0744 233.602 50.1698C233.602 48.7559 234.256 48.0081 236.336 48.0081C238.416 48.0081 239.199 48.7209 239.199 50.497V51.2682H240.531V50.6839C240.531 48.1717 239.362 46.7462 236.476 46.7462H236.313C233.403 46.7462 232.235 47.9146 232.235 50.2516C232.235 52.5886 233.403 53.3597 235.892 54.3062C238.381 55.2527 239.222 55.5799 239.222 57.5546C239.222 59.132 238.615 59.7863 236.476 59.7863C234.338 59.7863 233.532 59.1787 233.532 57.2157V56.4679H232.188V57.0171C232.188 59.8214 233.356 61.06 236.313 61.06H236.511C239.491 61.06 240.601 59.8915 240.601 57.4611C240.601 55.0306 239.433 54.1426 237.096 53.2546" fill="#C3882F"/>
<path d="M245.649 60.7562H253.886V59.4709H247.039V54.3997H253.279V53.1027H247.039V48.3119H253.886V47.0266H245.649V60.7562Z" fill="#C3882F"/>
</svg>
