<svg width="172" height="23" viewBox="0 0 172 23" fill="none" xmlns="http://www.w3.org/2000/svg">
<g clip-path="url(#clip0_464_1343)">
<path d="M20.2976 0.000298619L0 21.0049L1.92793 23.0001L22.2255 1.99552L20.2976 0.000298619Z" fill="#A6A9AC"/>
<path d="M13.8909 23C13.8933 20.7133 14.7722 18.521 16.3347 16.904C17.8972 15.287 20.0157 14.3775 22.2253 14.3749V11.5C20.766 11.5 19.321 11.7975 17.9727 12.3754C16.6245 12.9533 15.3995 13.8004 14.3676 14.8683C13.3357 15.9361 12.5171 17.2039 11.9587 18.5991C11.4002 19.9944 11.1128 21.4898 11.1128 23H13.8909Z" fill="#A6A9AC"/>
<path d="M8.33446 0C8.33199 2.28672 7.4531 4.47905 5.89062 6.09601C4.32814 7.71297 2.20968 8.6225 0 8.62507V11.5001C2.94723 11.5001 5.77374 10.2885 7.85775 8.13181C9.94175 5.97514 11.1125 3.05007 11.1125 8.12491e-05H8.33446V0Z" fill="#A6A9AC"/>
<path d="M30.5596 4.79395H40.7831V7.012H33.0457V10.5165H39.5829V12.7123H33.0457V19.1668H30.5596V4.79395Z" fill="#A6A9AC"/>
<path d="M41.4912 13.6884C41.4912 10.5165 43.4845 7.96585 46.3994 7.96585C47.0674 7.95156 47.7303 8.08916 48.3413 8.36895C48.9523 8.64873 49.4966 9.06387 49.9356 9.58508V8.18744H52.3148V19.1668H49.9356V17.7916C49.0999 18.8118 47.8354 19.3886 46.3994 19.3886C43.4845 19.3887 41.4912 16.8379 41.4912 13.6884ZM49.9356 13.6884C49.9356 11.7585 48.6926 10.339 46.9995 10.339C45.199 10.339 43.913 11.7585 43.913 13.6884C43.913 15.6182 45.1989 17.0154 46.9995 17.0154C48.6711 17.0154 49.9356 15.6402 49.9356 13.6884Z" fill="#A6A9AC"/>
<path d="M54.5869 17.7916L55.4871 15.7733C56.4231 16.609 57.6159 17.0728 58.8521 17.0819C59.8165 17.0819 60.9525 16.7047 60.9525 15.9286C60.9525 15.1301 59.8808 14.9304 58.8307 14.6198C56.816 14.0431 55.1013 13.4221 55.1013 11.2706C55.1013 9.11911 57.2231 7.96582 59.0877 7.96582C60.6738 7.96582 61.7241 8.38717 62.8815 9.09694L62.0027 11.0931C61.1281 10.5527 60.1278 10.269 59.1092 10.2726C58.3164 10.2726 57.5233 10.6496 57.5233 11.2263C57.5233 11.9804 58.4021 12.1579 59.3451 12.3576C61.317 12.8011 63.3744 13.6218 63.3744 15.8842C63.3744 18.4571 60.824 19.3887 58.8522 19.3887C56.6659 19.3886 55.1656 18.3683 54.5869 17.7916Z" fill="#A6A9AC"/>
<path d="M66.3755 15.6396V10.2055H64.811V8.18689H66.3755V6.03549L68.7547 5.52539V8.18689H71.9481V10.2055H68.7547V15.7061C68.7547 16.8816 69.2904 17.2588 69.8905 17.2588C70.443 17.2342 70.9776 17.0497 71.4337 16.7263L72.141 18.5674C71.3886 19.0971 70.5006 19.3828 69.5906 19.3881C67.4258 19.3881 66.3755 18.1681 66.3755 15.6396Z" fill="#A6A9AC"/>
<path d="M79.8574 17.3262L80.8218 15.3742C82.1078 16.499 83.7467 17.0986 85.4301 17.0599C86.9302 17.0599 88.4306 16.328 88.4306 15.0193C88.4306 13.7106 86.9945 13.3113 85.58 12.9566C83.0295 12.3355 80.3933 11.4927 80.3933 8.63139C80.3933 5.94772 82.858 4.57242 85.4301 4.57242C87.1897 4.54311 88.9139 5.08611 90.3595 6.12487L89.3951 8.09906C88.2166 7.30359 86.837 6.88685 85.4301 6.90133C84.5084 6.90133 82.9223 7.30069 82.9223 8.6093C82.9223 9.76261 84.1654 10.1398 85.8372 10.5611C88.4734 11.2043 91.0239 12.2247 91.0239 15.0194C91.0239 18.036 88.152 19.3889 85.4086 19.3889C82.3865 19.3889 80.779 18.2132 79.8574 17.3262Z" fill="#A6A9AC"/>
<path d="M93.2744 13.6883C93.2744 10.4943 95.782 7.96582 98.9113 7.96582C102.041 7.96582 104.548 10.4943 104.548 13.6883C104.548 16.86 102.04 19.3887 98.9113 19.3887C95.7822 19.3887 93.2744 16.86 93.2744 13.6883ZM102.126 13.6883C102.126 13.0303 101.938 12.387 101.584 11.8399C101.231 11.2927 100.729 10.8663 100.142 10.6144C99.5541 10.3626 98.9077 10.2967 98.284 10.4251C97.6604 10.5535 97.0875 10.8703 96.6379 11.3356C96.1882 11.8009 95.8821 12.3938 95.758 13.0392C95.634 13.6846 95.6976 14.3536 95.941 14.9615C96.1843 15.5695 96.5964 16.0891 97.1251 16.4546C97.6538 16.8202 98.2754 17.0153 98.9113 17.0153C99.3359 17.0245 99.7579 16.9447 100.152 16.7807C100.546 16.6168 100.904 16.3721 101.204 16.0613C101.505 15.7505 101.741 15.3801 101.9 14.9723C102.058 14.5645 102.135 14.1278 102.126 13.6883Z" fill="#A6A9AC"/>
<path d="M107.013 4.57227H109.393V19.1668H107.013V4.57227Z" fill="#A6A9AC"/>
<path d="M112.072 14.8639V8.1875H114.451V14.5091C114.451 16.2612 115.201 17.0153 116.68 17.0153C118.33 17.0153 119.209 15.5958 119.209 14.0209V8.1875H121.588V19.1668H119.338V17.4812C118.695 18.679 117.216 19.3888 115.93 19.3888C113.122 19.3887 112.072 17.7474 112.072 14.8639Z" fill="#A6A9AC"/>
<path d="M125.082 15.6396V10.2055H123.518V8.18689H125.082V6.03549L127.461 5.52539V8.18689H130.655V10.2055H127.461V15.7061C127.461 16.8816 127.997 17.2588 128.597 17.2588C129.149 17.2342 129.684 17.0497 130.14 16.7263L130.848 18.5674C130.095 19.0971 129.207 19.3828 128.297 19.3881C126.132 19.3881 125.082 18.1681 125.082 15.6396Z" fill="#A6A9AC"/>
<path d="M132.627 5.10399C132.626 4.70755 132.777 4.32678 133.046 4.04438C133.314 3.76198 133.68 3.60075 134.063 3.5957C134.448 3.59992 134.817 3.76019 135.089 4.04215C135.362 4.3241 135.516 4.7053 135.52 5.10399C135.516 5.50039 135.36 5.87879 135.087 6.15704C134.814 6.43529 134.446 6.5909 134.063 6.59009C133.682 6.59008 133.317 6.4335 133.048 6.1548C132.779 5.87611 132.627 5.49813 132.627 5.10399ZM132.884 8.18683H135.263V19.1661H132.884V8.18683Z" fill="#A6A9AC"/>
<path d="M137.728 13.6883C137.728 10.4943 140.236 7.96582 143.365 7.96582C146.495 7.96582 149.002 10.4943 149.002 13.6883C149.002 16.86 146.494 19.3887 143.365 19.3887C140.236 19.3887 137.728 16.86 137.728 13.6883ZM146.58 13.6883C146.58 13.0303 146.392 12.387 146.038 11.8399C145.685 11.2927 145.183 10.8663 144.595 10.6144C144.008 10.3626 143.362 10.2967 142.738 10.4251C142.114 10.5535 141.541 10.8703 141.092 11.3356C140.642 11.801 140.336 12.3938 140.212 13.0392C140.088 13.6846 140.151 14.3536 140.395 14.9615C140.638 15.5695 141.05 16.0891 141.579 16.4547C142.108 16.8202 142.729 17.0153 143.365 17.0153C143.79 17.0245 144.212 16.9447 144.606 16.7807C145 16.6168 145.358 16.3721 145.658 16.0613C145.959 15.7505 146.195 15.3801 146.353 14.9723C146.512 14.5645 146.589 14.1278 146.58 13.6883H146.58Z" fill="#A6A9AC"/>
<path d="M151.467 8.18749H153.846V9.76234C154.639 8.54247 155.861 7.96582 157.275 7.96582C160.147 7.96582 161.09 9.93983 161.09 12.8676V19.1668H158.711V13.1781C158.711 11.3816 158.325 10.3391 156.547 10.3391C154.982 10.3391 153.846 11.6035 153.846 13.4222V19.1668H151.467V8.18749Z" fill="#A6A9AC"/>
<path d="M163.213 17.7916L164.113 15.7733C165.049 16.609 166.242 17.0728 167.478 17.0819C168.442 17.0819 169.578 16.7047 169.578 15.9286C169.578 15.1301 168.507 14.9304 167.456 14.6198C165.442 14.0431 163.727 13.4221 163.727 11.2706C163.727 9.11911 165.849 7.96582 167.714 7.96582C169.3 7.96582 170.35 8.38717 171.507 9.09694L170.628 11.0931C169.754 10.5526 168.754 10.269 167.735 10.2726C166.942 10.2726 166.149 10.6496 166.149 11.2262C166.149 11.9804 167.028 12.1579 167.971 12.3575C169.943 12.8011 172 13.6218 172 15.8842C172 18.457 169.45 19.3887 167.478 19.3887C165.292 19.3886 163.791 18.3683 163.213 17.7916Z" fill="#A6A9AC"/>
</g>
<defs>
<clipPath id="clip0_464_1343">
<rect width="172" height="23" fill="white"/>
</clipPath>
</defs>
</svg>
