<svg width="39" height="39" viewBox="0 0 39 39" fill="none" xmlns="http://www.w3.org/2000/svg">
<path d="M21.9983 19.22C21.9983 25.3474 17.0738 30.3147 10.9994 30.3147C4.92493 30.3147 0 25.3463 0 19.22C0 13.0937 4.92456 8.125 10.9994 8.125C17.0742 8.125 21.9983 13.0926 21.9983 19.22Z" fill="#C3882F"/>
<path d="M34.0646 19.2205C34.0646 24.9881 31.6023 29.6656 28.5649 29.6656C25.5275 29.6656 23.0652 24.9881 23.0652 19.2205C23.0652 13.4528 25.5271 8.77539 28.5645 8.77539C31.6019 8.77539 34.0642 13.4513 34.0642 19.2205" fill="#C3882F"/>
<path d="M39 19.2204C39 24.3868 38.1341 28.5776 37.0657 28.5776C35.9973 28.5776 35.1318 24.388 35.1318 19.2204C35.1318 14.0529 35.9977 9.86328 37.0657 9.86328C38.1337 9.86328 39 14.0526 39 19.2204Z" fill="#C3882F"/>
</svg>
