<svg width="28" height="32" viewBox="0 0 28 32" fill="none" xmlns="http://www.w3.org/2000/svg">
<path d="M27.5718 24.5769C27.5867 24.6548 24.7298 29.5899 19.4823 29.6992C17.1428 29.724 14.8369 29.0211 12.8447 27.6758C11.7742 26.9439 10.7382 26.1548 9.74114 25.3114C8.54633 24.3219 7.2742 23.149 6.54697 22.4144C4.44071 20.3578 2.77357 17.8401 1.66203 15.0377C1.18698 13.8854 0.913006 12.6526 0.854027 11.4009C1.07275 6.69321 5.36334 2.58146 6.059 2.36229C6.75466 2.14313 7.8843 3.39753 9.13345 5.21277C10.3826 7.02802 11.2325 9.06133 11.0551 9.62592C10.8778 10.1905 7.72054 13.3612 7.76163 13.7752C7.80271 14.1893 16.0243 22.7278 16.7569 22.9763C17.4895 23.2247 20.7755 19.723 21.0739 19.6077C21.3722 19.4924 23.2975 20.1124 24.9156 21.3714C25.9784 22.2556 26.8793 23.3429 27.5718 24.5769Z" fill="#0C1013" stroke="#0C1013" stroke-width="0.8" stroke-linecap="round"/>
</svg>
