<svg width="94" height="87" viewBox="0 0 94 87" fill="none" xmlns="http://www.w3.org/2000/svg">
<rect width="93.5077" height="58.4423" rx="3" fill="#0C1013"/>
<rect x="36.7354" y="60.112" width="20.0374" height="3.33956" fill="#0C1013"/>
<path d="M33.3958 65.1216H61.5L63.4518 68.4611H30.8911L33.3958 65.1216Z" fill="#0C1013"/>
<rect x="16.1514" y="72.6809" width="61.7819" height="13.3582" rx="1" fill="#C3882F"/>
<path d="M28.2646 13.5795L34.4437 13.5556" stroke="white" stroke-linecap="round"/>
<path d="M34.4436 13.5557L39.02 37.6933" stroke="white" stroke-linecap="round"/>
<path d="M39.02 37.6935H56.718" stroke="white" stroke-linecap="round"/>
<path d="M36.6304 20.8137H61.2882" stroke="white" stroke-linecap="round"/>
<path d="M58.739 34.0764L61.3659 20.8137" stroke="white" stroke-linecap="round"/>
<path d="M39.02 34.0763H58.7386" stroke="white" stroke-linecap="round"/>
<path d="M46.81 43.0807C46.81 44.4523 45.7091 45.5566 44.3603 45.5566C43.0116 45.5566 41.9106 44.4523 41.9106 43.0807C41.9106 41.7091 43.0116 40.6048 44.3603 40.6048C45.7091 40.6048 46.81 41.7091 46.81 43.0807Z" stroke="white"/>
<path d="M55.1747 43.0807C55.1747 44.4523 54.0738 45.5566 52.7251 45.5566C51.3763 45.5566 50.2754 44.4523 50.2754 43.0807C50.2754 41.7091 51.3763 40.6048 52.7251 40.6048C54.0738 40.6048 55.1747 41.7091 55.1747 43.0807Z" stroke="white"/>
</svg>
