<svg width="93" height="95" viewBox="0 0 93 95" fill="none" xmlns="http://www.w3.org/2000/svg">
<rect width="92.6321" height="57.8951" rx="3" fill="#0C1013"/>
<rect x="36.3916" y="59.5491" width="19.8497" height="3.30829" fill="#0C1013"/>
<path d="M33.0833 64.5117H61L62.8579 67.82H30.6021L33.0833 64.5117Z" fill="#0C1013"/>
<rect x="16.0005" y="72.0003" width="61.2034" height="13.2332" rx="1" fill="#A6A9AC"/>
<path d="M65.2021 89.717V76.6949L69.2378 74.3121L73.0008 76.6949V85.0069L76.4365 83.2336V78.8006L80.4176 76.6949L84.0715 78.8006V83.2336L80.4176 85.2285V89.717L72.6735 94.0392L65.2021 89.717Z" fill="#C3882F" stroke="#0C1013" stroke-width="0.5"/>
<path d="M72.9213 94.0392V89.2593L69.4905 87.2265V78.6006" stroke="#0C1013" stroke-width="0.5"/>
<path d="M80.3795 85.4622L80.4354 80.99M80.4354 80.99L84.0713 78.6006M80.4354 80.99L76.3521 78.6006" stroke="#0C1013" stroke-width="0.5"/>
<rect x="26" y="17" width="64" height="38" rx="1" fill="#FCFCFC"/>
<path d="M11.792 5.8476H4.86035L13.4865 20.933L22.2666 5.8476H15.9511L13.7945 9.38805L11.792 5.8476Z" fill="#C3882F" stroke="#C3882F"/>
<path d="M33.72 43.94C33.4467 44.08 33.1367 44.19 32.79 44.27C33.1367 44.35 33.4467 44.46 33.72 44.6L38 46.76C38.1333 46.8333 38.2267 46.9167 38.28 47.01C38.34 47.1033 38.37 47.2067 38.37 47.32V48.72L30.59 44.67V43.87L38.37 39.82V41.22C38.37 41.3333 38.34 41.4367 38.28 41.53C38.2267 41.6233 38.1333 41.7067 38 41.78L33.72 43.94ZM43.1316 51.16C43.0382 51.4133 42.8916 51.6 42.6916 51.72C42.4916 51.8467 42.2849 51.91 42.0716 51.91H41.2516L47.2116 36.95C47.3049 36.7233 47.4382 36.55 47.6116 36.43C47.7916 36.3033 47.9982 36.24 48.2316 36.24H49.0616L43.1316 51.16ZM59.7131 43.87V44.67L51.9331 48.72V47.32C51.9331 47.2067 51.9598 47.1033 52.0131 47.01C52.0731 46.9167 52.1698 46.8333 52.3031 46.76L56.5831 44.6C56.8498 44.46 57.1598 44.35 57.5131 44.27C57.1598 44.19 56.8498 44.08 56.5831 43.94L52.3031 41.78C52.1698 41.7067 52.0731 41.6233 52.0131 41.53C51.9598 41.4367 51.9331 41.3333 51.9331 41.22V39.82L59.7131 43.87Z" fill="#0C1013"/>
<circle cx="75.4437" cy="31.4437" r="10.1437" fill="#C3882F" stroke="#0C1013" stroke-width="0.6"/>
<path d="M79.9635 31.4438C79.9635 34.2781 79.2268 36.842 78.2709 38.6909C77.7928 39.6159 77.2647 40.3524 76.7557 40.8529C76.2366 41.3634 75.7801 41.5876 75.4433 41.5876C75.1076 41.5876 74.6569 41.3644 74.1466 40.8546C73.6461 40.3545 73.1289 39.6185 72.6616 38.6934C71.7276 36.8444 71.0124 34.2797 71.0124 31.4438C71.0124 28.6079 71.7276 26.0432 72.6616 24.1942C73.1289 23.2692 73.6461 22.5331 74.1466 22.033C74.6569 21.5232 75.1076 21.3001 75.4433 21.3001C75.7801 21.3001 76.2366 21.5242 76.7557 22.0347C77.2647 22.5352 77.7928 23.2717 78.2709 24.1967C79.2268 26.0456 79.9635 28.6095 79.9635 31.4438Z" fill="#C3882F" stroke="#0C1013" stroke-width="0.6"/>
<line x1="65.8354" y1="27.975" x2="85.0524" y2="27.975" stroke="#0C1013" stroke-width="0.6" stroke-linecap="round"/>
<line x1="65.834" y1="34.5335" x2="85.0508" y2="34.447" stroke="#0C1013" stroke-width="0.6" stroke-linecap="round"/>
</svg>
