<svg width="201" height="213" viewBox="0 0 201 213" fill="none" xmlns="http://www.w3.org/2000/svg">
<circle cx="17" cy="199" r="3" transform="rotate(-180 17 199)" fill="#C3882F"/>
<circle cx="30" cy="210" r="3" transform="rotate(-180 30 210)" fill="#C3882F"/>
<circle cx="17" cy="173" r="3" transform="rotate(-180 17 173)" fill="#C3882F"/>
<circle cx="30" cy="163" r="3" transform="rotate(-180 30 163)" fill="#C3882F"/>
<circle cx="3" cy="185" r="3" transform="rotate(-180 3 185)" fill="#C3882F"/>
<path d="M3 185L17.5 173L30.5 162.5L3 185ZM3 185L17.5 199L30.5 210" stroke="#C3882F" stroke-linecap="round"/>
<path d="M22.4296 1.50302C21.8786 1.54193 21.4636 2.02007 21.5025 2.57098C21.5414 3.1219 22.0195 3.53696 22.5704 3.49805L22.4296 1.50302ZM33.506 185.001C32.9537 184.998 32.5033 185.443 32.5 185.995C32.4967 186.548 32.9417 186.998 33.494 187.001L33.506 185.001ZM22.5 2.50054C22.5704 3.49805 22.5709 3.49802 22.5719 3.49795C22.5732 3.49786 22.5749 3.49774 22.5774 3.49756C22.5825 3.49721 22.5902 3.49668 22.6005 3.49597C22.6212 3.49456 22.6526 3.49243 22.6944 3.48967C22.7779 3.48413 22.9034 3.47602 23.0693 3.46579C23.4011 3.44533 23.8949 3.41643 24.5398 3.38285C25.8296 3.31568 27.7239 3.2298 30.1363 3.15532C34.9613 3.00636 41.8575 2.90305 50.1341 3.08618C66.6925 3.45255 88.752 4.96494 110.797 9.54197C132.856 14.122 154.814 21.7535 171.237 34.3026C187.62 46.8212 198.5 64.2303 198.5 88.4999H200.5C200.5 63.5197 189.255 45.554 172.451 32.7134C155.686 19.9033 133.394 12.1911 111.203 7.58373C88.998 2.97337 66.8075 1.45461 50.1784 1.08667C41.8612 0.902641 34.9293 1.00639 30.0746 1.15627C27.6472 1.23122 25.7387 1.3177 24.4358 1.38555C23.7843 1.41948 23.2842 1.44874 22.9462 1.46958C22.7772 1.48 22.6488 1.48831 22.5622 1.49404C22.5189 1.4969 22.4861 1.49912 22.464 1.50064C22.4529 1.5014 22.4445 1.50198 22.4387 1.50238C22.4358 1.50258 22.4336 1.50274 22.4321 1.50284C22.4305 1.50295 22.4296 1.50302 22.5 2.50054ZM198.5 88.4999C198.5 112.801 188.278 130.945 172.9 144.54C157.493 158.161 136.9 167.217 116.221 173.228C95.5522 179.236 74.8697 182.181 59.345 183.623C51.5851 184.343 45.1197 184.688 40.5965 184.853C38.335 184.935 36.5593 184.972 35.3505 184.989C34.7461 184.997 34.2834 185 33.9726 185.001C33.8172 185.002 33.6998 185.002 33.6216 185.002C33.5825 185.002 33.5532 185.002 33.5339 185.001C33.5243 185.001 33.5171 185.001 33.5124 185.001C33.5101 185.001 33.5085 185.001 33.5073 185.001C33.5064 185.001 33.506 185.001 33.5 186.001C33.494 187.001 33.4949 187.001 33.4965 187.001C33.4978 187.001 33.5 187.001 33.5027 187.001C33.5082 187.001 33.5161 187.001 33.5266 187.001C33.5475 187.002 33.5783 187.002 33.619 187.002C33.7004 187.002 33.8211 187.002 33.9798 187.001C34.2971 187 34.7666 186.997 35.378 186.988C36.6008 186.972 38.3916 186.934 40.6692 186.851C45.224 186.686 51.7274 186.339 59.53 185.614C75.1303 184.165 95.9478 181.203 116.779 175.148C137.6 169.096 158.507 159.933 174.225 146.038C189.972 132.117 200.5 113.449 200.5 88.4999H198.5Z" fill="#C3882F"/>
</svg>
