<svg width="127" height="133" viewBox="0 0 127 133" fill="none" xmlns="http://www.w3.org/2000/svg">
<circle cx="110" cy="94" r="3" fill="#C3882F"/>
<circle cx="97" cy="83" r="3" fill="#C3882F"/>
<circle cx="110" cy="120" r="3" fill="#C3882F"/>
<circle cx="97" cy="130" r="3" fill="#C3882F"/>
<circle cx="124" cy="108" r="3" fill="#C3882F"/>
<path d="M124.5 108L110 120L97 130.5L124.5 108ZM124.5 108L110 94L97 83" stroke="#C3882F" stroke-linecap="round"/>
<path d="M95.0757 106.705C95.6264 106.663 96.0389 106.183 95.9971 105.632C95.9553 105.081 95.475 104.669 94.9243 104.711L95.0757 106.705ZM89.1517 2.00021C89.704 2.00378 90.1546 1.55897 90.1582 1.00669C90.1617 0.454422 89.7169 0.00382233 89.1647 0.00025177L89.1517 2.00021ZM95 105.708C94.9243 104.711 94.9243 104.711 94.9238 104.711C94.9232 104.711 94.9224 104.711 94.9212 104.711C94.9187 104.711 94.9148 104.711 94.9095 104.712C94.8989 104.712 94.8827 104.714 94.8609 104.715C94.8173 104.718 94.7515 104.723 94.6643 104.729C94.4897 104.74 94.2292 104.757 93.8885 104.776C93.207 104.814 92.2048 104.863 90.9278 104.905C88.3734 104.99 84.7207 105.049 80.3363 104.944C71.5619 104.736 59.8821 103.875 48.2177 101.272C36.5406 98.6675 24.9629 94.3359 16.322 87.2416C7.71927 80.1787 2 70.3605 2 56.6355H0C0 71.013 6.03073 81.3801 15.053 88.7874C24.0371 96.1635 35.9594 100.587 47.7823 103.224C59.6179 105.865 71.4381 106.733 80.2887 106.944C84.7168 107.049 88.4078 106.99 90.9941 106.904C92.2873 106.861 93.3047 106.811 94.0002 106.773C94.348 106.753 94.6153 106.736 94.7964 106.724C94.887 106.718 94.956 106.713 95.0028 106.71C95.0262 106.708 95.044 106.707 95.0562 106.706C95.0623 106.706 95.067 106.705 95.0702 106.705C95.0718 106.705 95.0732 106.705 95.074 106.705C95.075 106.705 95.0757 106.705 95 105.708ZM2 56.6355C2 29.2268 23.4434 15.5458 45.3772 8.69556C56.3109 5.28085 67.2587 3.60521 75.4828 2.78448C79.5923 2.37437 83.0156 2.1783 85.4092 2.08477C86.6059 2.038 87.5448 2.01688 88.1829 2.00745C88.502 2.00272 88.7459 2.00093 88.9091 2.00031C88.9908 1.99999 89.0522 1.99998 89.0929 2.00003C89.1132 2.00006 89.1283 2.00011 89.1382 2.00014C89.1431 2.00017 89.1467 2.00018 89.149 2.00019C89.1501 2.0002 89.1508 2.00021 89.1513 2.00021C89.1517 2.00021 89.1517 2.00021 89.1582 1.00023C89.1647 0.00025177 89.164 0.000244141 89.163 0.000244141C89.1622 0.000236511 89.1609 0.000228882 89.1594 0.000221252C89.1563 0.000205994 89.1518 0.000183105 89.1461 0.000160217C89.1346 0.000114441 89.1177 6.10352e-05 89.0957 3.05176e-05C89.0516 -3.05176e-05 88.9866 -7.62939e-06 88.9015 0.000320435C88.7311 0.000968933 88.48 0.00283051 88.1533 0.00766754C87.5001 0.0173264 86.545 0.0388565 85.3311 0.0862885C82.9035 0.181152 79.4395 0.379684 75.2842 0.794373C66.9785 1.62324 55.8868 3.31801 44.781 6.7865C22.6357 13.7027 0 27.8393 0 56.6355H2Z" fill="#C3882F"/>
</svg>
